<svg xmlns="http://www.w3.org/2000/svg" width="1906" height="411" viewBox="0 0 1906 411">
  <g fill="none" fill-rule="evenodd">
    <rect width="310" height="310" y="12" fill="#C0EB00"/>
    <rect width="230" height="230" x="40" y="52" fill="#36B945"/>
    <rect width="140" height="140" x="85" y="97" fill="#077B0A"/>
    <path fill="#077B0A" d="M577.024,297.54 C557.263901,313.804081 530.664167,321.936 497.224,321.936 L370,321.936 L370,11.856 L490.384,11.856 C522.30416,11.856 547.23191,18.8479301 565.168,32.832 C583.10409,46.8160699 592.072,68.703851 592.072,98.496 C592.072,117.952097 580.976111,136.343913 558.784,153.672 C590.70416,170.392084 606.664,196.079827 606.664,230.736 C606.664,259.008141 596.784099,281.275919 577.024,297.54 Z M517.516,69.768 C509.45996,63.9919711 497.528079,61.104 481.72,61.104 L428.824,61.104 L428.824,138.168 L472.6,138.168 C489.928087,138.168 503.759948,134.900033 514.096,128.364 C524.432052,121.827967 529.6,112.176064 529.6,99.408 C529.6,85.4239301 525.57204,75.5440289 517.516,69.768 Z M532.108,197.904 C523.443957,189.99996 511.664074,186.048 496.768,186.048 L428.824,186.048 L428.824,273.144 L492.664,273.144 C508.776081,273.144 521.543953,269.496036 530.968,262.2 C540.392047,254.903964 545.104,244.568067 545.104,231.192 C545.104,216.903929 540.772043,205.80804 532.108,197.904 Z M851.08,272.232 C841.351951,289.864088 827.596089,303.467952 809.812,313.044 C792.027911,322.620048 771.280119,327.408 747.568,327.408 C723.855881,327.408 703.108089,322.696047 685.324,313.272 C667.539911,303.847953 653.784049,290.396087 644.056,272.916 C634.327951,255.435913 629.464,234.992117 629.464,211.584 C629.464,188.175883 634.327951,167.656088 644.056,150.024 C653.784049,132.391912 667.539911,118.788048 685.324,109.212 C703.108089,99.6359521 723.855881,94.848 747.568,94.848 C771.280119,94.848 792.027911,99.5599529 809.812,108.984 C827.596089,118.408047 841.351951,131.859913 851.08,149.34 C860.808049,166.820087 865.672,187.263883 865.672,210.672 C865.672,234.080117 860.808049,254.599912 851.08,272.232 Z M788.38,258.096 C799.172054,245.631938 804.568,229.824096 804.568,210.672 C804.568,191.519904 799.248053,175.864061 788.608,163.704 C777.967947,151.543939 764.288084,145.464 747.568,145.464 C731.151918,145.464 717.548054,151.695938 706.756,164.16 C695.963946,176.624062 690.568,192.431904 690.568,211.584 C690.568,230.736096 695.887947,246.391939 706.528,258.552 C717.168053,270.712061 730.847916,276.792 747.568,276.792 C763.984082,276.792 777.587946,270.560062 788.38,258.096 Z M947.296,321.936 L991.528,255.36 L1032.568,321.936 L1097.776,321.936 L1029.832,217.968 L1105.072,100.776 L1040.32,100.776 L994.72,171.456 L944.56,93.48 L889.384,110.352 L956.872,209.304 L881.632,321.936 L947.296,321.936 Z M1333.072,210.672 L1333.072,228.912 L1183.96,228.912 C1187.00002,244.416078 1193.61195,256.271959 1203.796,264.48 C1213.98005,272.688041 1229.5599,276.792 1250.536,276.792 C1262.69606,276.792 1273.63995,275.120017 1283.368,271.776 C1293.09605,268.431983 1303.58394,263.568032 1314.832,257.184 L1332.16,300.048 C1320.91194,308.864044 1308.75207,315.627976 1295.68,320.34 C1282.60793,325.052024 1267.10409,327.408 1249.168,327.408 C1207.21579,327.408 1175.37211,317.148103 1153.636,296.628 C1131.89989,276.107897 1121.032,247.760181 1121.032,211.584 C1121.032,188.175883 1125.51596,167.656088 1134.484,150.024 C1143.45204,132.391912 1156.29592,118.788048 1173.016,109.212 C1189.73608,99.6359521 1209.49589,94.848 1232.296,94.848 C1254.48811,94.848 1273.18392,100.015948 1288.384,110.352 C1303.58408,120.688052 1314.83196,134.595913 1322.128,152.076 C1329.42404,169.556087 1333.072,189.087892 1333.072,210.672 Z M1200.376,156.636 C1192.16796,164.084037 1186.84801,174.951929 1184.416,189.24 L1276.984,189.24 C1273.94398,174.647927 1268.54804,163.704036 1260.796,156.408 C1253.04396,149.111964 1243.08806,145.464 1230.928,145.464 C1218.76794,145.464 1208.58404,149.187963 1200.376,156.636 Z M1575.664,0 L1575.664,321.936 L1544.656,321.936 L1530.976,301.872 C1511.5199,318.896085 1490.24012,327.408 1467.136,327.408 C1432.78383,327.408 1405.6521,316.996104 1385.74,296.172 C1365.8279,275.347896 1355.872,247.152178 1355.872,211.584 C1355.872,188.479884 1360.35596,168.112088 1369.324,150.48 C1378.29204,132.847912 1391.28791,119.168049 1408.312,109.44 C1425.33609,99.7119514 1445.55188,94.848 1468.96,94.848 C1476.25604,94.848 1484.00796,96.1399871 1492.216,98.724 C1500.42404,101.308013 1508.32796,104.879977 1515.928,109.44 L1515.928,5.016 L1575.664,0 Z M1430.884,258.78 C1440.15605,270.78806 1452.99992,276.792 1469.416,276.792 C1477.32004,276.792 1484.99596,275.272015 1492.444,272.232 C1499.89204,269.191985 1507.71996,264.63203 1515.928,258.552 L1515.928,164.16 C1508.02396,157.471967 1500.42404,152.684014 1493.128,149.796 C1485.83196,146.907986 1477.92804,145.464 1469.416,145.464 C1453.30392,145.464 1440.53605,151.619938 1431.112,163.932 C1421.68795,176.244062 1416.976,192.127903 1416.976,211.584 C1416.976,231.040097 1421.61195,246.77194 1430.884,258.78 Z M1643.608,59.736 C1637.22397,53.3519681 1634.032,45.4480471 1634.032,36.024 C1634.032,26.5999529 1637.22397,18.6960319 1643.608,12.312 C1649.99203,5.92796808 1657.89595,2.736 1667.32,2.736 C1676.74405,2.736 1684.72397,5.92796808 1691.26,12.312 C1697.79603,18.6960319 1701.064,26.5999529 1701.064,36.024 C1701.064,45.4480471 1697.79603,53.3519681 1691.26,59.736 C1684.72397,66.1200319 1676.74405,69.312 1667.32,69.312 C1657.89595,69.312 1649.99203,66.1200319 1643.608,59.736 Z M1697.416,326.952 C1697.416,341.848074 1695.44002,354.235951 1691.488,364.116 C1687.53598,373.996049 1680.46805,382.659963 1670.284,390.108 C1660.09995,397.556037 1645.4321,404.31997 1626.28,410.4 L1603.024,365.256 C1613.36005,361.607982 1621.03597,357.428024 1626.052,352.716 C1631.06803,348.003976 1634.25999,342.68403 1635.628,336.756 C1636.99601,330.82797 1637.68,322.84805 1637.68,312.816 L1637.68,100.776 L1697.416,100.776 L1697.416,326.952 Z M1773.568,321.48 C1788.76808,325.43202 1801.99194,327.408 1813.24,327.408 C1843.03215,327.408 1865.83192,321.40406 1881.64,309.396 C1897.44808,297.38794 1905.352,280.288111 1905.352,258.096 C1905.352,240.463912 1898.20807,225.568061 1883.92,213.408 C1869.63193,201.247939 1851.69611,191.21604 1830.112,183.312 C1818.86394,179.35998 1810.27603,175.788016 1804.348,172.596 C1798.41997,169.403984 1795.456,165.83202 1795.456,161.88 C1795.456,156.711974 1797.96397,152.228019 1802.98,148.428 C1807.99603,144.627981 1814.30396,142.728 1821.904,142.728 C1831.63205,142.728 1840.97996,143.943988 1849.948,146.376 C1858.91604,148.808012 1869.17594,152.607974 1880.728,157.776 L1898.512,118.104 C1888.17595,111.111965 1875.56007,105.488021 1860.664,101.232 C1845.76793,96.9759787 1833.15205,94.848 1822.816,94.848 C1796.36787,94.848 1775.39208,100.85194 1759.888,112.86 C1744.38392,124.86806 1736.632,141.359895 1736.632,162.336 C1736.632,179.056084 1743.62393,192.887945 1757.608,203.832 C1771.59207,214.776055 1789.0719,223.743965 1810.048,230.736 C1835.88813,238.64004 1848.808,248.519941 1848.808,260.376 C1848.808,266.45603 1845.00804,271.167983 1837.408,274.512 C1829.80796,277.856017 1821.44805,279.528 1812.328,279.528 C1796.21592,279.528 1776.91211,274.51205 1754.416,264.48 L1736.632,304.608 C1746.05605,311.904036 1758.36792,317.52798 1773.568,321.48 Z"/>
  </g>
</svg>
